<!DOCTYPE svg PUBLIC "-//W3C//DTD SVG 20010904//EN" "http://www.w3.org/TR/2001/REC-SVG-20010904/DTD/svg10.dtd">
<svg version="1.0" xmlns="http://www.w3.org/2000/svg" width="64px" height="64px" viewBox="0 0 640 640" preserveAspectRatio="xMidYMid meet">
<g id="layer101" fill="#0f0032" stroke="none">
 <path d="M0 320 l0 -320 320 0 320 0 0 320 0 320 -320 0 -320 0 0 -320z"/>
 </g>
<g id="layer102" fill="#200044" stroke="none">
 <path d="M26 562 c-24 -70 -26 -91 -26 -242 0 -151 2 -172 26 -242 l26 -78 268 0 268 0 26 78 c24 70 26 91 26 242 0 151 -2 172 -26 242 l-26 78 -268 0 -268 0 -26 -78z"/>
 </g>
<g id="layer103" fill="#300055" stroke="none">
 <path d="M46 502 c-27 -81 -46 -155 -46 -182 0 -27 19 -101 46 -182 l46 -138 228 0 228 0 46 138 c27 81 46 155 46 182 0 27 -19 101 -46 182 l-46 138 -228 0 -228 0 -46 -138z"/>
 </g>
<g id="layer104" fill="#009900" stroke="none">
 <path d="M78 480 l-53 -160 53 -160 53 -160 189 0 189 0 53 160 53 160 -53 160 -53 160 -189 0 -189 0 -53 -160z"/>
 </g>
<g id="layer105" fill="#400066" stroke="none">
 <path d="M78 480 l-53 -160 53 -160 53 -160 189 0 189 0 53 160 53 160 -53 160 -53 160 -189 0 -189 0 -53 -160z m270 33 c11 -27 30 -81 43 -120 l23 -73 -23 -72 c-30 -93 -61 -168 -71 -168 -10 0 -41 75 -71 167 l-23 73 23 72 c30 93 61 168 71 168 4 0 17 -21 28 -47z"/>
 <path d="M292 478 c-11 -29 -27 -77 -36 -106 l-18 -52 31 -93 c17 -50 36 -99 41 -107 14 -21 23 -6 61 107 l31 93 -18 52 c-33 103 -56 158 -64 158 -5 0 -17 -24 -28 -52z"/>
 </g>
<g id="layer106" fill="#500077" stroke="none">
 <path d="M118 480 l-53 -160 53 -160 53 -160 149 0 149 0 53 160 53 160 -53 160 -53 160 -149 0 -149 0 -53 -160z m230 33 c11 -27 30 -81 43 -120 l23 -73 -23 -72 c-30 -93 -61 -168 -71 -168 -10 0 -41 75 -71 167 l-23 73 23 72 c30 93 61 168 71 168 4 0 17 -21 28 -47z"/>
 <path d="M292 478 c-11 -29 -27 -77 -36 -106 l-18 -52 31 -93 c17 -50 36 -99 41 -107 14 -21 23 -6 61 107 l31 93 -18 52 c-33 103 -56 158 -64 158 -5 0 -17 -24 -28 -52z"/>
 </g>
<g id="layer107" fill="#600088" stroke="none">
 <path d="M207 613 c-8 -16 -34 -88 -58 -160 l-43 -133 43 -132 c67 -203 53 -188 171 -188 118 0 104 -15 171 188 l43 132 -43 133 c-67 202 -53 187 -171 187 -98 0 -100 0 -113 -27z m141 -100 c11 -27 30 -81 43 -120 l23 -73 -23 -72 c-30 -93 -61 -168 -71 -168 -10 0 -41 75 -71 167 l-23 73 23 72 c30 93 61 168 71 168 4 0 17 -21 28 -47z"/>
 <path d="M292 478 c-11 -29 -27 -77 -36 -106 l-18 -52 31 -93 c17 -50 36 -99 41 -107 14 -21 23 -6 61 107 l31 93 -18 52 c-33 103 -56 158 -64 158 -5 0 -17 -24 -28 -52z"/>
 </g>
<g id="layer108" fill="#22bb22" stroke="none">
 <path d="M237 583 c-14 -32 -40 -104 -58 -161 l-33 -102 33 -103 c18 -56 44 -128 58 -159 l26 -58 57 0 57 0 26 58 c14 31 40 103 58 160 l33 102 -33 103 c-18 56 -44 128 -58 160 l-26 57 -57 0 -57 0 -26 -57z m111 -70 c11 -27 30 -81 43 -120 l23 -73 -23 -72 c-30 -93 -61 -168 -71 -168 -10 0 -41 75 -71 167 l-23 73 23 72 c30 93 61 168 71 168 4 0 17 -21 28 -47z"/>
 <path d="M292 478 c-11 -29 -27 -77 -36 -106 l-18 -52 31 -93 c17 -50 36 -99 41 -107 14 -21 23 -6 61 107 l31 93 -18 52 c-33 103 -56 158 -64 158 -5 0 -17 -24 -28 -52z"/>
 </g>
<g id="layer109" fill="#700099" stroke="none">
 <path d="M237 583 c-14 -32 -40 -104 -58 -161 l-33 -102 33 -103 c18 -56 44 -128 58 -159 l26 -58 57 0 57 0 26 58 c14 31 40 103 58 160 l33 102 -33 103 c-18 56 -44 128 -58 160 l-26 57 -57 0 -57 0 -26 -57z m111 -70 c11 -27 30 -81 43 -120 l23 -73 -23 -72 c-30 -93 -61 -168 -71 -168 -10 0 -41 75 -71 167 l-23 73 23 72 c30 93 61 168 71 168 4 0 17 -21 28 -47z"/>
 <path d="M290 395 l-24 -75 24 -75 c13 -41 26 -75 30 -75 4 0 17 34 30 75 l24 75 -24 75 c-13 41 -26 75 -30 75 -4 0 -17 -34 -30 -75z"/>
 </g>
<g id="layer110" fill="#8000aa" stroke="none">
 <path d="M281 583 c-15 -32 -43 -104 -62 -161 l-33 -102 33 -103 c37 -111 86 -217 101 -217 15 0 64 106 101 217 l33 103 -33 102 c-37 112 -86 218 -101 218 -5 0 -23 -26 -39 -57z m67 -70 c11 -27 30 -81 43 -120 l23 -73 -23 -72 c-30 -93 -61 -168 -71 -168 -10 0 -41 75 -71 167 l-23 73 23 72 c30 93 61 168 71 168 4 0 17 -21 28 -47z"/>
 <path d="M290 395 l-24 -75 24 -75 c13 -41 26 -75 30 -75 4 0 17 34 30 75 l24 75 -24 75 c-13 41 -26 75 -30 75 -4 0 -17 -34 -30 -75z"/>
 </g>
<g id="layer111" fill="#33cc33" stroke="none">
 <path d="M290 395 l-24 -75 24 -75 c13 -41 26 -75 30 -75 4 0 17 34 30 75 l24 75 -24 75 c-13 41 -26 75 -30 75 -4 0 -17 -34 -30 -75z"/>
 </g>
<g id="layer112" fill="#44dd44" stroke="none">
 <path d="M296 375 c-16 -52 -16 -58 0 -110 10 -30 21 -55 24 -55 3 0 14 25 24 55 16 52 16 58 0 110 -10 30 -21 55 -24 55 -3 0 -14 -25 -24 -55z"/>
 </g>
<g id="layer113" fill="#55ee55" stroke="none">
 <path d="M303 355 c-11 -34 1 -105 17 -105 4 0 11 16 17 35 11 34 -1 105 -17 105 -4 0 -11 -16 -17 -35z"/>
 </g>
<g id="layer114" fill="#66ff66" stroke="none">
 <path d="M310 320 c0 -16 5 -30 10 -30 6 0 10 14 10 30 0 17 -4 30 -10 30 -5 0 -10 -13 -10 -30z"/>
 </g>

</svg>